<svg xmlns="http://www.w3.org/2000/svg" xmlns:xlink="http://www.w3.org/1999/xlink" width="410" zoomAndPan="magnify" viewBox="0 0 307.5 269.25" height="359" preserveAspectRatio="xMidYMid meet" version="1.0"><defs><clipPath id="d0b2c325ae"><path d="M 0.179688 0 L 306.824219 0 L 306.824219 268.183594 L 0.179688 268.183594 Z M 0.179688 0 " clip-rule="nonzero"/></clipPath><clipPath id="a5769f235d"><path d="M 12.328125 42.820312 C -12.523438 83.761719 4.984375 123.613281 26.988281 144.761719 L 155.628906 268.183594 L 281.558594 145.203125 C 302.023438 122.453125 309.867188 98.316406 305.511719 71.445312 C 299.492188 34.269531 268.859375 5.429688 231.015625 1.3125 C 207.804688 -1.1875 185.386719 5.378906 167.886719 19.921875 C 163.175781 23.832031 158.96875 28.207031 155.300781 32.960938 C 150.945312 27.546875 145.839844 22.597656 140.070312 18.207031 C 119.945312 2.914062 94.332031 -3.15625 69.726562 1.566406 C 46.425781 6.066406 25.507812 21.097656 12.328125 42.820312 Z M 12.328125 42.820312 " clip-rule="nonzero"/></clipPath></defs><g clip-path="url(#d0b2c325ae)"><g clip-path="url(#a5769f235d)"><path fill="#ffffff" d="M 0.179688 0 L 307.121094 0 L 307.121094 268.183594 L 0.179688 268.183594 Z M 0.179688 0 " fill-opacity="1" fill-rule="nonzero"/></g></g></svg>